<svg width="43" height="11" viewBox="0 0 43 11" fill="none" xmlns="http://www.w3.org/2000/svg">
<path d="M0.148 10.5V0.49H2.01V9.016H6.28V10.5H0.148ZM12.0955 9.142C13.0381 9.142 13.7848 8.81533 14.3355 8.162C14.8955 7.49933 15.1755 6.622 15.1755 5.53V5.418C15.1755 4.36333 14.8955 3.50467 14.3355 2.842C13.7848 2.17 13.0288 1.834 12.0675 1.834C11.0968 1.834 10.3315 2.16067 9.77147 2.814C9.2208 3.46733 8.94547 4.34 8.94547 5.432V5.544C8.94547 6.62667 9.23947 7.49933 9.82747 8.162C10.4155 8.81533 11.1715 9.142 12.0955 9.142ZM12.0675 10.64C10.5555 10.64 9.3328 10.1593 8.39947 9.198C7.46614 8.23667 6.99947 7.02333 6.99947 5.558V5.446C6.99947 3.98067 7.47547 2.76733 8.42747 1.806C9.37947 0.835333 10.5928 0.35 12.0675 0.35C13.5515 0.35 14.7601 0.826 15.6935 1.778C16.6361 2.72067 17.1075 3.92933 17.1075 5.404V5.516C17.1075 7 16.6408 8.22733 15.7075 9.198C14.7835 10.1593 13.5701 10.64 12.0675 10.64ZM23.3998 10.64C21.8318 10.64 20.6045 10.1733 19.7178 9.24C18.8405 8.29733 18.4018 7.07 18.4018 5.558V5.446C18.4018 3.95267 18.8685 2.73 19.8018 1.778C20.7351 0.816666 21.9345 0.336 23.3998 0.336C24.5571 0.336 25.5325 0.616 26.3258 1.176C27.1285 1.736 27.5905 2.58067 27.7118 3.71H25.8498C25.6351 2.44067 24.8278 1.806 23.4278 1.806C22.4571 1.806 21.6965 2.13733 21.1458 2.8C20.6045 3.46267 20.3338 4.34933 20.3338 5.46V5.572C20.3338 6.68267 20.5951 7.56467 21.1178 8.218C21.6405 8.862 22.4105 9.184 23.4278 9.184C24.3145 9.184 24.9771 8.95067 25.4158 8.484C25.8638 8.01733 26.1018 7.41067 26.1298 6.664H23.6098V5.264H27.9638V6.188C27.9638 7.56933 27.5578 8.65667 26.7458 9.45C25.9338 10.2433 24.8185 10.64 23.3998 10.64ZM29.8173 10.5V0.49H31.6933V10.5H29.8173ZM34.0543 10.5V0.49H36.2803L40.4943 7.728V0.49H42.1883V10.5H40.2563L35.7483 2.828V10.5H34.0543Z" fill="#0D0D0D"/>
</svg>
