<?xml version="1.0" standalone="no"?>
<!DOCTYPE svg PUBLIC "-//W3C//DTD SVG 20010904//EN"
 "http://www.w3.org/TR/2001/REC-SVG-20010904/DTD/svg10.dtd">
<svg version="1.0" xmlns="http://www.w3.org/2000/svg"
 width="600.000000pt" height="620.000000pt" viewBox="0 0 600.000000 620.000000"
 preserveAspectRatio="xMidYMid meet">

<g transform="translate(0.000000,620.000000) scale(0.100000,-0.100000)"
fill="#000000" stroke="none">
<path d="M2695 5030 c-699 -125 -1261 -615 -1464 -1277 -66 -213 -75 -285 -76
-553 0 -229 2 -253 27 -371 167 -773 774 -1348 1546 -1464 134 -20 410 -20
545 0 609 91 1129 475 1397 1030 127 263 182 506 182 805 0 299 -55 542 -182
806 -249 518 -723 888 -1294 1010 -105 23 -150 27 -346 30 -191 3 -242 0 -335
-16z m431 -40 c314 -26 597 -121 854 -287 545 -354 864 -998 810 -1636 -38
-452 -205 -813 -525 -1132 -177 -178 -333 -286 -541 -378 -465 -204 -986 -203
-1450 1 -309 136 -592 377 -777 662 -351 540 -387 1217 -96 1790 94 184 180
301 334 455 154 154 271 240 455 334 213 108 439 172 668 190 59 4 114 9 123
10 9 0 74 -4 145 -9z"/>
<path d="M2779 4725 c-19 -41 -37 -74 -40 -75 -3 0 -29 27 -58 60 -55 63 -70
70 -91 45 -11 -13 -1 -28 58 -93 67 -74 70 -81 80 -147 13 -78 34 -104 61 -71
9 10 9 31 1 82 l-11 69 42 86 c43 88 46 119 11 119 -14 0 -28 -20 -53 -75z"/>
<path d="M3134 4790 c-29 -12 -54 -49 -54 -80 0 -36 23 -65 86 -105 40 -26 54
-41 54 -58 0 -55 -64 -65 -112 -17 -54 54 -92 20 -43 -38 35 -42 92 -59 144
-43 71 21 103 92 64 140 -10 12 -40 36 -67 54 -27 17 -54 39 -60 49 -25 41 58
67 91 28 33 -39 76 -18 53 26 -24 43 -102 66 -156 44z"/>
<path d="M3563 4702 c-6 -4 -41 -72 -78 -150 -61 -130 -66 -145 -52 -159 24
-24 46 -9 73 52 14 30 27 55 29 55 16 0 135 -62 135 -70 0 -6 -9 -28 -20 -50
-11 -22 -20 -51 -20 -65 0 -22 4 -26 25 -23 22 3 34 22 91 142 36 76 64 146
62 155 -2 9 -13 17 -25 19 -18 3 -28 -8 -53 -57 -17 -34 -33 -61 -35 -61 -3 0
-35 13 -71 30 -43 19 -64 34 -61 42 3 7 16 36 28 65 19 43 20 54 10 67 -15 18
-21 19 -38 8z"/>
<path d="M2222 4605 c-53 -27 -72 -42 -72 -56 0 -25 140 -280 157 -286 18 -7
138 62 162 93 47 60 9 153 -62 154 -26 0 -28 2 -22 33 5 27 2 39 -17 60 -37
42 -64 42 -146 2z m102 -47 c19 -27 7 -52 -35 -74 -17 -8 -32 -14 -33 -12 -24
36 -36 59 -36 66 0 9 58 40 77 41 6 1 19 -9 27 -21z m88 -105 c31 -27 23 -60
-24 -93 -22 -16 -44 -30 -47 -30 -3 0 -18 22 -33 48 l-27 49 42 21 c51 26 65
27 89 5z"/>
<path d="M3975 4356 c-168 -75 -119 -335 63 -336 185 -1 254 248 92 330 -45
23 -111 25 -155 6z m158 -86 c46 -51 29 -131 -36 -170 -50 -31 -93 -26 -133
14 -25 25 -34 43 -34 68 0 107 133 165 203 88z"/>
<path d="M1813 4294 c-8 -20 125 -331 145 -339 9 -3 22 1 30 9 14 13 13 20 -3
56 l-18 41 53 54 53 53 38 -13 c34 -12 41 -12 54 1 28 28 0 46 -156 100 -167
58 -187 62 -196 38z m152 -86 c48 -17 51 -25 20 -58 -16 -16 -32 -30 -36 -30
-8 0 -49 85 -49 102 0 6 8 7 18 3 9 -4 31 -12 47 -17z"/>
<path d="M2825 4254 c-144 -36 -192 -51 -262 -84 -396 -185 -633 -555 -633
-988 0 -352 154 -663 432 -873 367 -276 878 -288 1264 -29 98 66 240 208 277
278 39 71 35 121 -10 142 -31 14 -33 18 -33 70 -1 64 -25 123 -66 162 -32 30
-84 53 -84 38 0 -6 -8 -10 -17 -10 -15 0 -16 2 -3 10 11 7 7 10 -18 10 -48 0
-147 -36 -224 -81 -118 -69 -164 -64 -159 17 1 26 9 53 17 61 39 39 8 121 -47
126 -15 1 -39 18 -58 39 -18 21 -54 52 -79 69 -78 53 -226 72 -283 36 -12 -8
-26 -6 -52 6 -52 25 -127 19 -127 -9 0 -10 13 -14 44 -14 50 0 67 -14 37 -29
-21 -12 -51 -64 -51 -91 0 -22 31 -50 56 -50 25 0 66 29 58 41 -3 5 0 8 7 7
18 -4 39 42 32 73 -7 34 14 42 109 41 56 0 78 -6 128 -33 33 -18 74 -47 90
-66 29 -32 29 -35 15 -63 -8 -16 -15 -36 -15 -45 0 -27 26 -16 43 20 17 35 43
45 64 24 13 -13 5 -55 -13 -70 -9 -7 -14 -31 -14 -63 0 -140 -98 -257 -228
-273 -46 -5 -54 -3 -120 40 -87 56 -180 148 -232 228 -72 111 -130 285 -130
389 0 41 6 45 67 56 29 5 53 28 53 51 0 8 -21 56 -46 107 l-46 94 36 77 c70
151 176 271 324 365 87 55 112 84 112 128 0 49 -31 67 -119 69 -42 1 -85 -1
-96 -3z m143 -35 c65 -22 43 -61 -81 -142 -141 -93 -231 -194 -307 -345 -23
-46 -42 -95 -42 -110 0 -15 18 -65 41 -111 23 -46 40 -89 37 -97 -3 -8 -20
-14 -40 -14 -18 0 -44 -8 -56 -18 -18 -15 -22 -28 -21 -80 0 -60 -1 -62 -25
-62 -37 0 -80 29 -101 67 -18 35 -40 43 -49 19 -10 -25 51 -114 75 -110 3 1
16 -2 29 -7 13 -5 38 -9 56 -9 32 0 34 -2 39 -45 14 -96 98 -250 196 -357 110
-120 263 -210 426 -249 81 -19 107 -21 258 -15 228 8 322 34 409 112 46 41 78
37 78 -10 0 -89 -203 -290 -389 -385 -182 -93 -343 -128 -540 -118 -461 23
-848 340 -967 792 -23 87 -27 120 -27 255 0 136 4 168 27 255 104 396 410 691
806 775 101 22 127 23 168 9z m-158 -1049 c0 -15 -51 -70 -66 -70 -24 0 -15
31 17 61 29 27 49 30 49 9z m-103 -72 c-3 -8 -6 -5 -6 6 -1 11 2 17 5 13 3 -3
4 -12 1 -19z m933 -169 c0 -6 -10 -29 -22 -51 -17 -30 -20 -43 -12 -56 18 -28
115 -71 166 -74 61 -4 64 -26 10 -77 -49 -46 -138 -82 -223 -88 -116 -9 -142
32 -69 109 22 23 38 48 35 55 -7 19 -34 3 -73 -42 -38 -42 -48 -78 -34 -110
11 -23 9 -24 -33 -31 -25 -3 -64 -3 -88 0 l-43 7 36 37 c43 46 65 106 44 123
-11 9 -18 0 -38 -44 -17 -40 -34 -61 -58 -73 -36 -19 -116 -22 -158 -6 -24 9
-23 10 25 31 60 27 127 89 150 142 18 39 19 39 74 39 40 0 66 6 91 21 77 48
179 94 213 98 4 1 7 -4 7 -10z m124 -19 c32 -29 71 -111 58 -124 -16 -17 -106
5 -156 37 l-24 16 19 38 c10 20 19 43 19 50 0 24 49 13 84 -17z"/>
<path d="M2285 3796 c-41 -18 -79 -61 -72 -80 9 -22 24 -20 37 4 14 26 61 50
100 50 19 0 30 5 30 14 0 27 -47 33 -95 12z"/>
<path d="M2287 3633 c-4 -3 -7 -19 -7 -35 0 -67 69 -111 132 -85 40 17 68 61
49 80 -9 9 -17 5 -37 -21 -28 -36 -49 -40 -82 -16 -15 11 -22 25 -22 50 0 32
-16 45 -33 27z"/>
<path d="M4275 3897 c-125 -57 -140 -66 -143 -90 -3 -23 1 -27 20 -27 13 0 42
9 66 20 l42 19 16 -39 c21 -53 76 -100 115 -100 66 0 108 43 109 110 0 51 -51
170 -72 170 -7 0 -76 -29 -153 -63z m159 -47 c9 -22 16 -49 16 -60 0 -21 -35
-50 -62 -50 -22 0 -54 34 -67 71 -10 28 -8 30 37 54 26 13 50 24 53 25 4 0 14
-18 23 -40z"/>
<path d="M1585 3931 c-11 -5 -28 -17 -37 -28 -25 -28 -69 -128 -63 -144 6 -17
265 -139 293 -139 14 0 28 19 51 68 40 89 41 134 2 173 -33 32 -67 37 -110 14
-28 -14 -29 -13 -35 10 -4 14 -20 31 -36 40 -32 17 -37 17 -65 6z m65 -80 c8
-15 6 -29 -7 -55 -19 -41 -23 -42 -63 -21 -35 18 -36 20 -10 63 23 37 63 44
80 13z m146 -45 c14 -23 14 -28 -5 -70 -11 -25 -23 -46 -26 -46 -5 0 -86 39
-93 45 -4 4 26 64 40 83 18 21 66 14 84 -12z"/>
<path d="M3041 3016 c-7 -13 -24 -29 -38 -35 -30 -14 -25 -37 7 -33 27 3 83
58 77 75 -7 22 -33 18 -46 -7z"/>
<path d="M2866 2845 c-3 -8 -17 -20 -31 -27 -32 -14 -33 -38 -1 -38 23 0 76
49 76 71 0 15 -37 10 -44 -6z"/>
<path d="M3037 2815 c-10 -14 -29 -28 -42 -31 -36 -9 -32 -34 5 -34 36 0 80
39 80 70 0 27 -21 25 -43 -5z"/>
<path d="M1772 2698 c3 -13 7 -29 9 -36 3 -8 -26 -24 -81 -45 -57 -21 -86 -38
-88 -49 -5 -25 11 -23 106 12 l81 29 13 -26 c16 -32 38 -42 38 -17 0 36 -51
154 -67 154 -11 0 -14 -7 -11 -22z"/>
<path d="M4190 2668 c-12 -29 -24 -59 -27 -65 -3 -8 30 -29 92 -58 54 -25 101
-45 106 -45 9 0 51 78 63 118 14 42 -23 24 -46 -23 -24 -48 -33 -53 -63 -31
-17 12 -18 17 -7 40 16 35 15 46 -2 46 -7 0 -19 -14 -26 -30 -10 -24 -17 -29
-34 -24 -36 11 -39 20 -17 69 25 57 25 55 2 55 -13 0 -25 -16 -41 -52z"/>
<path d="M4075 2430 c-26 -10 -79 -85 -72 -102 2 -7 43 -40 91 -73 69 -47 89
-56 99 -46 10 10 5 18 -22 41 -46 39 -31 60 45 60 48 0 54 2 54 21 0 19 -5 21
-45 17 -41 -3 -45 -1 -45 20 0 28 -42 72 -67 71 -10 0 -27 -4 -38 -9z m53 -42
c17 -17 15 -42 -5 -67 l-18 -21 -32 21 -33 21 21 29 c21 31 47 37 67 17z"/>
<path d="M1825 2396 c-75 -17 -101 -27 -103 -39 -3 -14 4 -17 35 -17 33 0 41
-5 61 -36 21 -32 22 -40 11 -66 -12 -30 -3 -53 17 -40 19 12 125 202 119 212
-8 13 -22 12 -140 -14z m63 -62 l-22 -37 -18 23 c-24 29 -23 38 5 43 57 11 58
10 35 -29z"/>
<path d="M3838 2189 c-27 -22 -48 -45 -48 -51 0 -17 133 -168 148 -168 4 0 32
22 62 49 45 40 52 51 38 56 -11 4 -31 -4 -57 -26 l-40 -32 -20 24 -20 24 26
27 c36 38 20 56 -22 24 l-33 -26 -17 27 c-18 26 -18 27 19 56 36 29 48 57 24
57 -7 0 -34 -18 -60 -41z"/>
<path d="M2058 2184 c-72 -39 -77 -148 -8 -201 36 -29 140 -5 140 32 0 21 -61
68 -73 56 -7 -7 -5 -17 8 -31 16 -18 17 -23 5 -30 -35 -22 -90 22 -90 72 0 39
40 78 80 78 29 0 54 -18 76 -55 11 -21 34 -13 34 12 0 8 -15 30 -34 49 -27 27
-42 34 -72 34 -22 -1 -51 -7 -66 -16z"/>
<path d="M3644 2046 c-3 -8 4 -32 14 -53 l20 -39 -45 -24 c-44 -24 -47 -24
-57 -6 -6 10 -21 31 -33 45 -19 23 -22 24 -28 9 -7 -17 50 -141 87 -190 14
-19 19 -21 30 -10 11 11 9 20 -9 51 -25 43 -23 46 35 75 38 20 45 17 62 -23
13 -34 38 -48 46 -27 6 16 -93 206 -107 206 -5 0 -12 -6 -15 -14z"/>
<path d="M2327 1935 c-26 -52 -47 -97 -47 -100 0 -10 121 -65 130 -60 19 12
10 25 -32 46 -24 12 -45 23 -46 24 -2 2 15 39 37 82 46 88 49 103 23 103 -12
0 -32 -28 -65 -95z"/>
<path d="M2645 1920 c-11 -18 -55 -175 -55 -198 0 -16 5 -22 16 -20 18 3 78
192 69 216 -5 14 -21 16 -30 2z"/>
<path d="M3211 1899 c-25 -5 -48 -12 -52 -16 -9 -9 19 -203 31 -216 9 -10 138
11 146 24 12 20 -8 26 -57 17 -28 -5 -53 -8 -54 -6 -2 2 -5 17 -7 33 -3 27 0
30 32 35 22 3 35 10 35 20 0 12 -10 14 -42 12 -42 -4 -43 -3 -43 27 0 25 5 32
25 36 14 3 36 7 50 10 32 7 34 35 3 34 -13 -1 -43 -5 -67 -10z"/>
<path d="M2816 1813 c-10 -129 -9 -155 12 -151 13 2 18 17 23 66 3 34 8 65 11
68 3 2 29 -32 57 -76 28 -45 57 -80 64 -77 13 4 24 83 26 180 1 51 -1 58 -16
55 -14 -3 -19 -17 -24 -71 -3 -37 -8 -69 -11 -72 -3 -3 -27 31 -54 75 -63 105
-79 106 -88 3z"/>
<path d="M2292 100 c0 -40 2 -47 7 -26 9 42 29 44 34 4 l5 -33 -2 35 c-1 24
-6 35 -16 35 -8 0 -18 9 -22 20 -3 11 -6 -4 -6 -35z"/>
<path d="M2893 100 c0 -30 1 -47 4 -37 5 18 5 18 25 0 21 -18 21 -18 9 5 -10
19 -10 27 1 40 10 13 8 13 -9 -1 -21 -19 -22 -19 -26 15 -2 20 -4 11 -4 -22z"/>
<path d="M3329 133 c-12 -15 -12 -16 4 -10 14 5 17 1 17 -27 0 -19 -6 -37 -12
-39 -7 -3 1 -5 17 -5 17 0 24 2 18 5 -8 3 -13 23 -13 49 0 47 -9 55 -31 27z"/>
<path d="M3412 117 l-22 -32 25 -3 c15 -2 25 -10 26 -20 0 -15 1 -15 8 1 8 21
2 87 -8 87 -3 0 -16 -15 -29 -33z m28 -7 c0 -11 -7 -20 -15 -20 -18 0 -19 12
-3 28 16 16 18 15 18 -8z"/>
<path d="M3502 143 l28 -4 -20 -39 c-28 -56 -24 -64 5 -10 31 58 31 60 -7 59
-31 -2 -31 -2 -6 -6z"/>
<path d="M3576 126 c-30 -47 -9 -97 29 -66 21 18 19 41 -5 47 -16 4 -18 8 -9
19 7 8 10 17 7 20 -3 2 -13 -7 -22 -20z m29 -46 c0 -8 -8 -16 -17 -18 -13 -2
-18 3 -18 18 0 15 5 20 18 18 9 -2 17 -10 17 -18z"/>
<path d="M3656 126 c-30 -47 -9 -97 29 -66 21 18 19 41 -5 47 -16 4 -18 8 -9
19 7 8 10 17 7 20 -3 2 -13 -7 -22 -20z m29 -46 c0 -8 -8 -16 -17 -18 -13 -2
-18 3 -18 18 0 15 5 20 18 18 9 -2 17 -10 17 -18z"/>
<path d="M3736 126 c-30 -47 -9 -97 29 -66 21 18 19 41 -5 47 -16 4 -18 8 -9
19 7 8 10 17 7 20 -3 2 -13 -7 -22 -20z m29 -46 c0 -8 -8 -16 -17 -18 -13 -2
-18 3 -18 18 0 15 5 20 18 18 9 -2 17 -10 17 -18z"/>
<path d="M3822 143 l28 -4 -20 -39 c-28 -56 -24 -64 5 -10 31 58 31 60 -7 59
-31 -2 -31 -2 -6 -6z"/>
<path d="M3880 125 c-11 -29 3 -75 23 -75 21 0 37 22 37 50 0 50 -44 68 -60
25z m45 -26 c0 -24 -5 -34 -15 -34 -16 0 -25 37 -16 62 10 26 31 8 31 -28z"/>
<path d="M3969 133 c-12 -15 -12 -16 4 -10 14 5 17 1 17 -27 0 -19 -6 -37 -12
-39 -7 -3 1 -5 17 -5 17 0 24 2 18 5 -8 3 -13 23 -13 49 0 47 -9 55 -31 27z"/>
<path d="M4047 143 c-13 -12 -7 -42 10 -52 15 -8 15 -11 3 -27 -10 -11 -10
-15 -2 -10 6 4 19 21 28 37 12 24 13 34 3 45 -12 15 -31 18 -42 7z m38 -23 c0
-8 -8 -16 -17 -18 -13 -2 -18 3 -18 18 0 15 5 20 18 18 9 -2 17 -10 17 -18z"/>
<path d="M2433 129 c-14 -14 -1 -71 17 -77 12 -4 13 -2 3 9 -7 7 -13 21 -13
30 0 10 6 20 13 22 9 4 9 6 -1 6 -7 1 -10 6 -7 11 8 13 2 13 -12 -1z"/>
<path d="M2477 124 c-9 -10 9 -68 23 -72 12 -4 13 -2 3 9 -16 17 -17 46 -1 51
8 3 6 6 -4 10 -9 4 -18 5 -21 2z"/>
<path d="M1903 85 c10 -35 27 -48 27 -20 0 8 -4 15 -10 15 -5 0 -10 9 -10 20
0 11 -4 20 -9 20 -5 0 -4 -15 2 -35z"/>
<path d="M1936 111 c-5 -7 -4 -16 1 -20 5 -3 13 -15 17 -26 8 -18 10 -16 24
15 l15 35 10 -32 c10 -34 27 -45 27 -18 0 8 -4 15 -10 15 -5 0 -10 9 -10 21 0
29 -33 21 -40 -11 l-6 -25 -10 30 c-7 21 -13 25 -18 16z"/>
<path d="M2036 111 c-5 -7 -4 -16 1 -20 5 -3 13 -15 17 -26 8 -18 10 -16 24
15 l15 35 10 -32 c10 -34 27 -45 27 -18 0 8 -4 15 -10 15 -5 0 -10 9 -10 21 0
29 -33 21 -40 -11 l-6 -25 -10 30 c-7 21 -13 25 -18 16z"/>
<path d="M2135 110 c-4 -7 -3 -15 2 -19 5 -3 13 -15 17 -26 6 -17 9 -17 15 -5
17 30 24 63 12 56 -6 -4 -11 -17 -12 -29 -1 -19 -2 -19 -13 7 -9 20 -16 25
-21 16z"/>
<path d="M2234 108 c-4 -6 0 -16 9 -23 22 -16 21 -22 0 -28 -16 -4 -16 -5 -1
-6 26 -2 33 20 12 36 -16 12 -17 15 -4 23 9 6 10 10 3 10 -6 0 -15 -5 -19 -12z"/>
<path d="M2364 91 c0 -21 7 -36 16 -38 10 -3 11 -2 3 4 -6 4 -13 22 -16 38 -4
27 -5 27 -3 -4z"/>
<path d="M2403 85 c0 -22 2 -30 4 -17 2 12 2 30 0 40 -3 9 -5 -1 -4 -23z"/>
<path d="M2534 106 c-11 -28 0 -51 26 -53 22 -1 22 -1 3 4 -29 6 -30 23 -2 23
14 0 19 5 17 17 -4 23 -36 29 -44 9z m36 -6 c0 -5 -7 -10 -15 -10 -8 0 -15 5
-15 10 0 6 7 10 15 10 8 0 15 -4 15 -10z"/>
<path d="M2601 81 c1 -28 3 -30 6 -11 3 14 9 30 14 36 5 7 3 11 -6 11 -11 0
-15 -11 -14 -36z"/>
<path d="M2654 108 c-4 -6 0 -16 9 -23 22 -16 21 -22 0 -28 -16 -4 -16 -5 -1
-6 26 -2 33 20 12 36 -16 12 -17 15 -4 23 9 6 10 10 3 10 -6 0 -15 -5 -19 -12z"/>
<path d="M2709 88 c4 -17 13 -34 21 -36 12 -4 13 -2 3 9 -7 7 -13 21 -13 30 0
10 6 20 13 22 6 3 2 6 -9 6 -19 1 -21 -3 -15 -31z"/>
<path d="M2767 114 c-13 -13 -7 -55 9 -61 24 -9 51 23 38 45 -12 19 -36 27
-47 16z m36 -16 c6 -19 -3 -38 -19 -38 -8 0 -14 10 -14 25 0 26 25 35 33 13z"/>
<path d="M2834 106 c-9 -23 0 -51 16 -52 9 0 10 1 3 3 -20 7 -16 51 5 56 16 4
16 5 -1 6 -10 0 -20 -5 -23 -13z"/>
<path d="M2994 106 c-9 -23 0 -51 16 -52 9 0 10 1 3 3 -20 7 -16 51 5 56 16 4
16 5 -1 6 -10 0 -20 -5 -23 -13z"/>
<path d="M3057 114 c-13 -13 -7 -55 9 -61 24 -9 51 23 38 45 -12 19 -36 27
-47 16z m37 -13 c9 -14 -4 -41 -20 -41 -8 0 -14 10 -14 25 0 25 23 35 34 16z"/>
<path d="M3123 85 c0 -22 2 -30 4 -17 2 12 2 30 0 40 -3 9 -5 -1 -4 -23z"/>
<path d="M3147 112 c6 -4 13 -21 16 -37 l4 -30 2 33 c1 41 23 39 33 -4 6 -27
6 -27 5 6 -2 32 -4 35 -36 37 -19 1 -30 -2 -24 -5z"/>
</g>
</svg>
